<svg version="1.1" id="Layer_1" xmlns="http://www.w3.org/2000/svg" xmlns:xlink="http://www.w3.org/1999/xlink" x="0px" y="0px"
	 width="100%" viewBox="0 0 512 487" enable-background="new 0 0 512 487" xml:space="preserve">
<path fill="#101010" opacity="1.000000" stroke="none" 
	d="
M312.000000,488.000000 
	C209.333359,488.000000 107.166695,487.977997 5.000183,488.095520 
	C1.576252,488.099487 0.902928,487.423859 0.905263,484.000000 
	C1.014148,324.333435 1.014128,164.666794 0.905300,5.000254 
	C0.902967,1.576949 1.575790,0.903115 4.999870,0.905318 
	C172.999756,1.013449 340.999725,1.013435 508.999634,0.905386 
	C512.422668,0.903185 513.097107,1.575402 513.094788,4.999752 
	C512.985901,164.666306 512.985901,324.332947 513.094666,483.999512 
	C513.096985,487.422302 512.425781,488.103546 509.000244,488.096680 
	C443.500336,487.965820 378.000153,488.000000 312.000000,488.000000 
z"/>
<path fill="#314052" opacity="1.000000" stroke="none" 
	d="
M143.022369,74.834885 
	C147.038925,73.461891 150.708221,71.906120 154.674744,70.178482 
	C155.411362,69.536369 156.044678,69.521523 156.818497,69.113281 
	C157.040649,68.911613 157.018494,69.013199 156.967377,69.003708 
	C157.401733,68.604057 157.949463,68.471901 158.946243,68.809235 
	C160.530960,68.051437 161.529144,66.669624 163.726562,67.024277 
	C165.248291,66.014656 166.547272,65.355652 168.421661,65.323853 
	C177.896042,63.422890 186.654007,59.692303 196.493744,59.269890 
	C198.630219,57.741642 200.775131,58.831509 203.093216,58.421650 
	C203.739792,58.264389 204.008789,58.174118 204.700470,58.034012 
	C207.261429,56.947777 209.515457,57.552265 212.130066,57.775974 
	C215.592209,56.284775 218.652359,56.027637 222.202423,56.813763 
	C225.263626,57.491638 228.608231,56.889771 232.292496,56.934235 
	C233.030243,56.878895 233.303040,56.743004 233.984924,56.811127 
	C234.394028,57.015141 234.763443,56.929279 234.937515,57.004494 
	C235.981934,57.807331 236.826614,57.316051 238.017242,56.993565 
	C238.631531,56.856834 238.912598,56.823288 239.409302,56.914207 
	C240.205048,56.935318 240.582474,57.201828 240.927139,58.111160 
	C251.157837,59.630779 261.241852,60.571621 270.988617,63.589268 
	C274.644562,64.721176 278.416321,65.479012 282.422150,66.677086 
	C283.322388,66.953758 283.893372,67.085411 284.565186,67.732819 
	C285.889709,68.067711 287.014160,68.179123 288.265137,68.627853 
	C289.350739,69.414955 290.375824,69.536797 291.755249,69.768959 
	C292.092590,69.963631 292.022369,69.976715 292.025848,69.941162 
	C292.193726,70.196068 292.407471,70.444031 292.841248,70.827621 
	C300.837769,75.222122 309.949646,77.019768 316.826263,83.755478 
	C317.575073,83.605751 318.095337,83.539719 318.880310,84.142380 
	C324.349579,87.192055 328.545807,91.406326 333.308899,94.611000 
	C339.325073,98.658783 344.010834,103.849152 349.199677,108.607742 
	C355.436401,114.327316 359.837708,121.675690 365.358002,127.929802 
	C370.993561,134.314423 374.097015,142.007217 378.979370,148.697556 
	C381.777405,152.531708 383.442688,157.270187 385.209015,161.762329 
	C388.282776,169.579468 390.987030,177.541061 393.955872,185.400665 
	C395.162933,188.596252 395.603149,191.892700 395.949249,195.617065 
	C396.975098,196.879120 396.309418,198.040771 396.639404,199.358444 
	C397.151855,201.795044 397.554108,203.927307 397.967194,206.461975 
	C398.730133,207.942581 398.659637,209.189713 398.896057,210.729950 
	C399.085327,211.047241 398.994232,211.011154 399.011566,210.965332 
	C399.141663,211.136093 399.254456,211.352707 399.171875,211.879181 
	C398.973755,213.563858 398.970978,214.938660 399.006836,216.724457 
	C400.174622,223.699417 399.249695,230.314270 399.675842,237.329361 
	C399.816711,237.759567 399.983459,238.195343 399.996460,238.428284 
	C400.138763,238.942322 400.268036,239.223450 400.202454,239.925842 
	C400.007599,240.347107 399.994812,240.790695 399.916840,240.998444 
	C399.340790,241.879501 399.524841,242.641998 399.716064,243.616425 
	C399.878113,243.848572 400.028229,244.200638 400.020508,244.391846 
	C400.140930,244.887222 400.269135,245.191360 400.200928,245.949982 
	C400.004517,246.404449 400.084137,246.486023 400.069946,246.541229 
	C400.119690,247.082993 399.940247,247.462830 399.268433,247.945374 
	C398.971741,249.128342 398.956482,250.116150 398.962280,251.474091 
	C399.111694,252.045532 399.240051,252.246857 399.198608,252.763474 
	C399.028778,253.078781 398.999542,252.993057 399.042297,252.978210 
	C398.023285,253.949524 398.752563,255.266846 398.231812,256.682953 
	C396.626801,273.985046 390.652954,289.773773 385.115417,305.689331 
	C384.689117,306.914734 383.708832,307.466400 383.026062,308.817993 
	C382.295258,309.881104 382.612793,310.778351 382.195190,311.812805 
	C382.024750,312.072662 382.011261,311.997864 382.048767,311.991699 
	C381.927155,312.123474 381.768036,312.261414 381.341431,312.567200 
	C380.297394,316.720947 382.587524,319.228058 385.412781,321.336334 
	C389.453156,324.351318 393.736847,327.053802 397.648865,330.220520 
	C399.197968,331.474457 401.962952,332.181122 401.431488,335.236328 
	C401.368195,335.600220 402.166626,336.445343 402.653320,336.523865 
	C409.930267,337.697723 414.008362,343.527130 419.232971,347.716949 
	C427.624878,354.446777 436.405365,360.716492 444.526520,367.752136 
	C451.597443,373.877899 460.759949,378.245789 463.740112,388.654236 
	C464.278625,389.039490 464.604401,389.234100 464.945038,389.824829 
	C465.029236,396.656708 465.698853,403.292328 464.875183,409.737122 
	C463.626740,419.505829 451.789398,429.948090 442.173859,430.408813 
	C440.341309,430.496582 439.109955,431.260010 437.290680,431.962006 
	C435.636261,432.858307 434.217224,432.391846 432.485565,432.231964 
	C431.886932,431.990509 431.653656,431.953278 431.069580,431.866272 
	C429.304626,431.239014 427.669922,432.065796 426.126831,430.793671 
	C413.792969,426.544464 405.509125,417.102356 395.958008,409.475769 
	C387.806366,402.966736 379.653137,396.459045 371.555817,389.882782 
	C362.253357,382.327698 352.410065,375.442749 343.607941,367.265717 
	C341.261963,365.086365 339.916809,364.819061 336.907318,367.747101 
	C332.607727,371.930359 328.056671,376.334686 322.272125,378.898346 
	C319.760773,380.011292 317.397400,381.594025 315.225739,383.294159 
	C313.509125,384.637970 312.073578,386.111359 309.637848,385.336853 
	C307.175629,384.553925 308.878479,387.449402 307.291077,387.858948 
	C305.859985,388.929230 304.526672,389.445618 302.766968,389.894287 
	C302.458252,390.722198 301.963562,390.884521 301.161255,391.063263 
	C300.394012,392.145630 299.471558,392.493561 298.227173,392.879578 
	C298.015930,393.097290 298.019562,393.024231 298.055908,393.028381 
	C297.880463,393.144409 297.668671,393.256287 297.154846,393.173584 
	C290.378906,396.911163 283.177521,399.131866 276.050323,401.372131 
	C268.102203,403.870422 260.134125,406.553619 251.295410,406.952271 
	C249.300354,408.177643 247.492126,407.319366 245.452728,407.731018 
	C244.367828,408.113892 243.846481,409.248230 242.490509,408.234436 
	C237.503647,409.143524 232.793549,408.148193 227.713318,408.654724 
	C227.131760,408.839325 226.973343,408.899323 226.561935,408.983093 
	C226.039185,409.136993 225.769409,409.267181 225.095703,409.200623 
	C224.519531,408.987396 224.347321,408.970886 223.932114,408.863342 
	C219.734726,408.161621 215.764420,408.618011 211.373932,408.551086 
	C209.219254,408.464813 207.490051,408.555298 205.389465,408.216888 
	C204.806534,407.994934 204.597946,407.991089 204.085648,407.911804 
	C203.781937,407.836365 203.399017,407.600403 203.243317,407.762665 
	C203.087601,407.924927 202.788864,408.081879 202.626419,408.036255 
	C202.210770,408.109344 201.957565,408.228058 201.313995,408.193176 
	C200.923630,408.039581 201.001892,408.005554 201.018555,408.044830 
	C199.640289,406.916107 197.776016,408.179840 196.145599,406.820984 
	C191.163223,407.365509 186.313721,405.910065 182.272217,404.431488 
	C172.020966,400.681122 161.111069,399.249237 151.167755,394.287933 
	C138.113205,387.774261 125.146301,381.270782 113.261841,372.125946 
	C112.542130,371.502045 111.948013,371.513245 111.177917,371.210754 
	C110.933746,371.070953 110.999084,371.001221 110.964203,371.033936 
	C110.603516,370.591095 110.510307,370.037659 110.246796,369.256165 
	C104.873291,364.672333 98.176910,361.681213 96.410461,354.153748 
	C91.301956,352.961121 89.547661,348.163696 86.356186,344.886688 
	C80.639008,339.016357 77.047928,331.641296 72.102272,325.247742 
	C68.191895,320.192566 66.729126,313.919312 63.390663,308.384216 
	C62.014290,307.213440 61.661655,305.657715 61.098778,303.774963 
	C58.694546,297.511597 56.432224,291.615723 54.357826,285.389160 
	C52.921795,284.376953 53.585514,282.758209 53.051266,281.207153 
	C52.592533,277.716064 50.461872,274.986938 51.003899,271.290649 
	C50.810287,270.762482 50.653023,270.627777 50.270012,270.279694 
	C50.044262,270.066345 49.929558,269.724762 49.970207,269.549255 
	C49.291874,268.249237 49.589588,266.967285 49.271809,265.427368 
	C48.794792,262.679779 48.496254,260.257812 48.186523,257.447571 
	C46.561646,255.560272 47.760990,253.666809 47.325439,251.624664 
	C47.111458,247.494202 47.035507,243.722366 46.880104,239.477280 
	C45.983635,236.316895 46.710163,233.563644 46.285393,230.477325 
	C46.119133,230.102066 45.973072,229.752747 45.979965,229.563568 
	C45.858788,229.082535 45.730717,228.790695 45.795692,228.061523 
	C45.988743,227.624176 45.929142,227.342316 45.976139,227.206146 
	C46.168629,226.899765 46.314117,226.729568 46.623981,226.266495 
	C46.879688,221.576080 46.971016,217.178543 47.090454,212.304932 
	C47.268993,210.756943 47.384266,209.680038 47.760231,208.345367 
	C48.720642,200.036270 50.560978,192.216599 53.039192,184.070694 
	C53.762550,182.650757 53.038826,181.507019 53.806328,180.263611 
	C56.395298,173.518585 58.574081,166.935471 61.218517,160.545059 
	C63.064327,156.084549 65.547836,151.887955 67.917549,147.227661 
	C68.519318,146.481796 68.488258,145.901276 68.803864,145.168747 
	C68.940979,144.934845 68.992554,144.988266 68.956085,144.981323 
	C69.254539,144.702194 69.596710,144.439438 70.246368,144.066391 
	C73.438026,136.430542 78.342041,130.245026 83.500710,124.207787 
	C86.133797,121.126251 88.086929,117.210289 91.241394,114.883476 
	C96.821320,110.767586 99.499519,104.042213 105.630173,100.171974 
	C106.176567,99.783272 106.429756,99.549606 106.836838,99.108299 
	C106.990997,98.900948 106.992149,98.990791 106.947220,98.990448 
	C107.227058,98.682571 107.487228,98.326805 108.027084,97.943237 
	C118.376579,89.710564 129.211136,82.704216 140.825851,76.330772 
	C141.231049,75.819633 141.450378,75.581108 141.795166,75.131393 
	C141.931351,74.930054 141.998917,74.996262 141.968719,74.959602 
	C142.184036,74.832672 142.429581,74.742393 143.022369,74.834885 
z"/>
<path fill="#8C919A" opacity="1.000000" stroke="none" 
	d="
M399.795074,237.320496 
	C398.556122,231.228653 399.520813,224.615234 399.065735,217.594574 
	C399.649933,217.588303 400.833862,218.147934 400.773010,218.478210 
	C399.649231,224.577042 399.849396,230.735428 399.795074,237.320496 
z"/>
<path fill="#8B929A" opacity="1.000000" stroke="none" 
	d="
M227.735397,408.766968 
	C231.878464,407.759064 236.559128,408.039429 241.666702,407.891479 
	C239.511658,410.719452 236.391312,408.403168 233.530701,408.803131 
	C231.783768,409.047424 229.966354,408.787872 227.735397,408.766968 
z"/>
<path fill="#8B929A" opacity="1.000000" stroke="none" 
	d="
M210.694183,408.250366 
	C214.982101,408.170593 218.996674,408.309662 223.350189,408.610504 
	C219.675674,408.947540 215.662231,409.122803 211.303284,409.108459 
	C210.778809,408.768982 210.599823,408.619110 210.694183,408.250366 
z"/>
<path fill="#BDC2CA" opacity="1.000000" stroke="none" 
	d="
M212.463486,57.653751 
	C210.366776,57.998734 208.197891,57.963985 205.576080,57.956703 
	C204.612320,54.875668 209.015228,58.102093 208.682556,55.223289 
	C208.652725,58.196575 211.888611,55.263821 212.463486,57.653751 
z"/>
<path fill="#7BA3A6" opacity="1.000000" stroke="none" 
	d="
M46.134861,230.503723 
	C47.559391,232.662735 46.479900,235.479370 46.868153,238.572052 
	C44.328655,236.485519 46.470787,233.596619 46.134861,230.503723 
z"/>
<path fill="#B3B5BD" opacity="1.000000" stroke="none" 
	d="
M245.476562,407.903259 
	C246.597748,406.425751 248.485306,407.425201 250.539368,407.078522 
	C249.789642,410.843506 247.472260,407.258667 245.476562,407.903259 
z"/>
<path fill="#C3C6CA" opacity="1.000000" stroke="none" 
	d="
M47.171207,251.616547 
	C48.465405,252.774765 47.679756,254.630646 48.104389,256.677063 
	C44.261192,256.077972 47.543694,253.654709 47.171207,251.616547 
z"/>
<path fill="#B3B5BD" opacity="1.000000" stroke="none" 
	d="
M203.066162,58.357292 
	C201.529816,58.632015 199.588821,58.909370 197.257141,59.254944 
	C198.362595,56.381783 200.763885,58.886005 203.066162,58.357292 
z"/>
<path fill="#CECFE2" opacity="1.000000" stroke="none" 
	d="
M396.789368,199.295319 
	C395.873505,198.806244 396.133453,197.676285 396.018494,196.312790 
	C396.865875,196.955719 398.548004,193.816956 398.826172,196.468155 
	C398.898743,197.160156 396.422058,197.146957 396.789368,199.295319 
z"/>
<path fill="#D2D5DB" opacity="1.000000" stroke="none" 
	d="
M425.965454,430.832031 
	C427.359283,430.752930 428.777863,431.043060 430.457581,431.574890 
	C429.106506,431.888580 427.299652,433.456360 425.965454,430.832031 
z"/>
<path fill="#D5D8E1" opacity="1.000000" stroke="none" 
	d="
M52.662086,280.920013 
	C54.270706,281.677429 53.536564,283.265991 54.390919,284.699951 
	C51.459881,284.995056 52.760582,282.543976 52.662086,280.920013 
z"/>
<path fill="#F9F9F9" opacity="1.000000" stroke="none" 
	d="
M210.542694,408.016602 
	C210.967529,408.031494 211.188507,408.477722 211.073151,408.698303 
	C209.069168,408.865448 207.180557,408.812073 205.153534,408.378723 
	C206.716034,407.999756 208.416946,408.000732 210.542694,408.016602 
z"/>
<path fill="#E4E6EC" opacity="1.000000" stroke="none" 
	d="
M168.354645,65.133110 
	C167.745056,66.591866 166.022491,66.326553 164.396515,66.993378 
	C164.637878,64.829094 166.263062,64.839371 168.354645,65.133110 
z"/>
<path fill="#BDC2CA" opacity="1.000000" stroke="none" 
	d="
M195.950592,406.857910 
	C197.525665,406.761597 199.108826,407.060760 200.863617,407.722046 
	C199.354874,407.734924 197.285263,409.764557 195.950592,406.857910 
z"/>
<path fill="#C3C6CA" opacity="1.000000" stroke="none" 
	d="
M398.384796,256.978027 
	C398.137329,255.727997 398.261902,254.483627 398.735779,253.101318 
	C397.691010,254.198578 401.005829,255.818268 398.384796,256.978027 
z"/>
<path fill="#D0D1D4" opacity="1.000000" stroke="none" 
	d="
M399.082001,210.709534 
	C397.458313,210.351837 398.456848,208.708191 397.916809,207.253357 
	C399.369537,207.712006 399.925537,208.821808 399.082001,210.709534 
z"/>
<path fill="#C8CBD4" opacity="1.000000" stroke="none" 
	d="
M47.646805,208.174194 
	C47.873257,209.220840 47.801750,210.364883 47.424408,211.668900 
	C45.356411,210.524063 47.154678,209.449753 47.646805,208.174194 
z"/>
<path fill="#C8CBD4" opacity="1.000000" stroke="none" 
	d="
M53.690098,180.041748 
	C53.890133,181.063232 53.762566,182.107056 53.437347,183.402298 
	C53.313286,182.458298 51.115368,181.185150 53.690098,180.041748 
z"/>
<path fill="#FFFFFF" opacity="1.000000" stroke="none" 
	d="
M432.207397,432.388733 
	C433.453217,432.022034 434.786255,432.016296 436.519714,432.013245 
	C435.633453,433.868958 433.871429,432.725647 432.207397,432.388733 
z"/>
<path fill="#B3B5BD" opacity="1.000000" stroke="none" 
	d="
M466.660950,402.964722 
	C466.724426,404.471710 467.448944,405.752686 466.347687,407.062561 
	C465.523254,405.444061 465.623779,404.043945 466.660950,402.964722 
z"/>
<path fill="#D5D8E1" opacity="1.000000" stroke="none" 
	d="
M302.837433,389.922485 
	C303.709412,389.339081 304.993073,388.666077 306.637573,387.990997 
	C306.450836,390.031281 305.029236,390.296600 302.837433,389.922485 
z"/>
<path fill="#E0E0E4" opacity="1.000000" stroke="none" 
	d="
M465.372009,390.000519 
	C464.770416,389.855713 464.512573,389.604919 464.069641,389.156708 
	C464.396667,388.475677 462.135773,386.038940 464.970428,387.332367 
	C465.498596,387.573334 465.481293,389.009796 465.372009,390.000519 
z"/>
<path fill="#CECFE2" opacity="1.000000" stroke="none" 
	d="
M61.016991,303.847351 
	C61.680466,304.748535 62.404060,306.089600 63.344521,307.746338 
	C61.111526,307.871063 60.901794,306.205872 61.016991,303.847351 
z"/>
<path fill="#A9ACBB" opacity="1.000000" stroke="none" 
	d="
M49.057571,265.496643 
	C50.594425,265.900177 49.854729,267.469116 50.158432,269.001160 
	C48.328075,268.597321 49.255093,267.079651 49.057571,265.496643 
z"/>
<path fill="#E0E0E4" opacity="1.000000" stroke="none" 
	d="
M298.384949,393.065338 
	C297.713501,391.180145 299.740875,392.210175 300.583130,391.232819 
	C301.291077,393.021820 300.116425,393.134491 298.384949,393.065338 
z"/>
<path fill="#E0E0E4" opacity="1.000000" stroke="none" 
	d="
M319.076660,84.100235 
	C318.665497,84.351257 318.225830,84.204330 317.440369,84.021255 
	C316.900330,83.231773 315.641357,82.311127 316.950256,81.754211 
	C318.629578,81.039665 318.105621,83.281242 319.076660,84.100235 
z"/>
<path fill="#C3C6CA" opacity="1.000000" stroke="none" 
	d="
M284.847534,67.595634 
	C284.155945,67.817200 283.546631,67.678101 282.823151,67.242889 
	C283.581909,66.020660 284.496521,64.773079 284.847534,67.595634 
z"/>
<path fill="#C3C6CA" opacity="1.000000" stroke="none" 
	d="
M238.172653,56.677666 
	C237.671310,58.374012 236.490479,57.642620 235.292725,57.352383 
	C236.307816,57.848690 236.826401,55.777027 238.172653,56.677666 
z"/>
<path fill="#C3C6CA" opacity="1.000000" stroke="none" 
	d="
M241.092102,58.046459 
	C240.657562,58.210224 240.209366,57.965630 239.688812,57.344353 
	C240.032379,56.423058 239.667297,55.164845 240.788025,55.402176 
	C241.031738,55.453793 240.989166,56.857258 241.092102,58.046459 
z"/>
<path fill="#BDBFC7" opacity="1.000000" stroke="none" 
	d="
M382.366394,311.985962 
	C381.404633,311.146362 381.886169,310.322388 382.572937,309.334473 
	C382.823425,310.086517 382.765717,310.992889 382.366394,311.985962 
z"/>
<path fill="#8C919A" opacity="1.000000" stroke="none" 
	d="
M399.317383,248.251129 
	C399.100403,247.681274 399.213867,247.222000 399.691559,246.679596 
	C400.802521,246.973206 401.420258,247.475037 401.022369,248.401932 
	C400.594086,249.399612 400.099884,248.711182 399.317383,248.251129 
z"/>
<path fill="#8C919A" opacity="1.000000" stroke="none" 
	d="
M399.848938,243.519104 
	C399.067200,243.203186 399.209351,242.386353 399.651672,241.377686 
	C399.832520,241.867340 399.826141,242.528473 399.848938,243.519104 
z"/>
<path fill="#DCDCDF" opacity="1.000000" stroke="none" 
	d="
M291.912170,69.582176 
	C290.860352,70.773811 290.020050,70.027924 288.791870,69.099106 
	C289.505035,69.043694 290.618408,69.122208 291.912170,69.582176 
z"/>
<path fill="#DCDCDF" opacity="1.000000" stroke="none" 
	d="
M108.210304,97.624878 
	C108.123810,98.365776 107.886681,98.775696 107.275925,99.087860 
	C107.054733,98.056206 107.207169,97.122292 107.359612,96.188385 
	C107.592964,96.556892 107.826317,96.925392 108.210304,97.624878 
z"/>
<path fill="#D2D5DB" opacity="1.000000" stroke="none" 
	d="
M159.250504,68.664566 
	C158.788483,69.099739 158.243912,69.178696 157.307800,69.125931 
	C157.323563,67.638618 158.212234,67.863426 159.250504,68.664566 
z"/>
<path fill="#D2D5DB" opacity="1.000000" stroke="none" 
	d="
M156.703796,69.002792 
	C156.927475,69.727661 156.260269,69.899429 155.303589,70.063423 
	C154.955215,68.966087 155.648499,69.010818 156.703796,69.002792 
z"/>
<path fill="#E4E6EC" opacity="1.000000" stroke="none" 
	d="
M110.071869,369.341034 
	C110.586380,369.563171 111.080376,370.103516 111.251846,370.855286 
	C110.157173,370.896637 109.985130,370.352264 110.071869,369.341034 
z"/>
<path fill="#E4E6EC" opacity="1.000000" stroke="none" 
	d="
M111.035324,371.370972 
	C111.619392,369.794373 112.174637,370.999725 112.869949,371.559998 
	C112.349319,371.858185 111.743111,371.764587 111.035324,371.370972 
z"/>
<path fill="#A5B3B7" opacity="1.000000" stroke="none" 
	d="
M68.622528,144.992935 
	C69.555794,145.599258 69.085510,146.112244 68.395981,146.759674 
	C68.160416,146.271561 68.232246,145.661301 68.622528,144.992935 
z"/>
<path fill="#DCDCDF" opacity="1.000000" stroke="none" 
	d="
M106.710358,98.967926 
	C106.873543,99.295639 106.756088,99.690323 106.280861,100.050819 
	C106.091957,99.689384 106.260834,99.362144 106.710358,98.967926 
z"/>
<path fill="#E0E0E4" opacity="1.000000" stroke="none" 
	d="
M296.938477,393.258911 
	C297.064117,392.878571 297.275421,392.778168 297.789490,392.855164 
	C297.902222,393.551605 297.783020,394.220062 296.938477,393.258911 
z"/>
<path fill="#BDC2CA" opacity="1.000000" stroke="none" 
	d="
M203.258057,407.878235 
	C202.723877,407.126648 203.291031,407.429688 203.706879,407.650635 
	C203.781937,407.836365 203.428497,407.831543 203.258057,407.878235 
z"/>
<path fill="#BDBFC7" opacity="1.000000" stroke="none" 
	d="
M141.645401,74.979782 
	C142.452255,75.391434 142.412811,75.792709 141.401672,76.090515 
	C141.120483,75.708710 141.239960,75.369118 141.645401,74.979782 
z"/>
<path fill="#BDC2CA" opacity="1.000000" stroke="none" 
	d="
M200.993378,408.346069 
	C201.175491,407.879700 201.427353,407.719849 202.071594,407.775269 
	C202.068909,408.363373 201.882233,409.177124 200.993378,408.346069 
z"/>
<path fill="#BDBFC7" opacity="1.000000" stroke="none" 
	d="
M143.217102,74.751740 
	C143.118423,75.193481 142.867218,75.369293 142.277252,75.234024 
	C142.099335,74.224617 142.371628,73.813400 143.217102,74.751740 
z"/>
<path fill="#DCDCDF" opacity="1.000000" stroke="none" 
	d="
M292.989380,70.724899 
	C292.582184,70.853241 292.152313,70.700729 291.875916,70.226913 
	C292.341797,70.085091 292.654266,70.264572 292.989380,70.724899 
z"/>
<path fill="#8B929A" opacity="1.000000" stroke="none" 
	d="
M224.818207,409.323151 
	C224.961395,408.923126 225.231049,408.842316 225.904816,408.884155 
	C226.028046,409.591919 225.848480,410.394531 224.818207,409.323151 
z"/>
<path fill="#C3C6CA" opacity="1.000000" stroke="none" 
	d="
M234.217758,56.739342 
	C234.121246,57.117992 233.848450,57.220844 233.166565,57.169239 
	C233.035614,56.481956 233.213440,55.715477 234.217758,56.739342 
z"/>
<path fill="#8C919A" opacity="1.000000" stroke="none" 
	d="
M400.317871,246.239075 
	C399.895172,246.100433 399.785797,245.796402 399.844604,245.037720 
	C400.545410,244.944473 401.407196,245.169342 400.317871,246.239075 
z"/>
<path fill="#7BA3A6" opacity="1.000000" stroke="none" 
	d="
M45.679985,227.781738 
	C46.092533,227.915970 46.196320,228.207748 46.143478,228.936951 
	C45.451706,229.037552 44.605972,228.833969 45.679985,227.781738 
z"/>
<path fill="#7BA3A6" opacity="1.000000" stroke="none" 
	d="
M46.549381,226.057144 
	C46.724689,226.328339 46.661026,226.683060 46.310249,227.053864 
	C46.118893,226.760193 46.214649,226.450439 46.549381,226.057144 
z"/>
<path fill="#D0D1D4" opacity="1.000000" stroke="none" 
	d="
M399.262817,212.094666 
	C398.867493,211.972610 398.758484,211.756180 398.839172,211.229614 
	C399.607758,211.084595 400.233429,211.227142 399.262817,212.094666 
z"/>
<path fill="#C3C6CA" opacity="1.000000" stroke="none" 
	d="
M399.327209,253.019211 
	C398.917603,252.876816 398.806396,252.674850 398.839264,252.158554 
	C399.515076,252.033127 400.238190,252.111832 399.327209,253.019211 
z"/>
<path fill="#A9ACBB" opacity="1.000000" stroke="none" 
	d="
M50.091599,270.302246 
	C50.315754,270.176086 50.587242,270.285828 50.913143,270.646393 
	C50.603603,270.979950 50.327400,270.860260 50.091599,270.302246 
z"/>
<path fill="#A5B3B7" opacity="1.000000" stroke="none" 
	d="
M70.185059,143.961456 
	C70.243065,144.316833 69.938591,144.685760 69.276863,145.014526 
	C69.220604,144.641235 69.521599,144.308105 70.185059,143.961456 
z"/>
<path fill="#BDBFC7" opacity="1.000000" stroke="none" 
	d="
M381.304993,312.728424 
	C381.203400,312.454407 381.390564,312.219696 381.860840,312.008270 
	C381.960480,312.274017 381.777069,312.519409 381.304993,312.728424 
z"/>
<path fill="#8C919A" opacity="1.000000" stroke="none" 
	d="
M400.323425,240.204956 
	C399.917053,240.066055 399.826477,239.784988 399.872681,239.082581 
	C400.583160,238.964935 401.396790,239.160858 400.323425,240.204956 
z"/>
<path fill="#121212" opacity="1.000000" stroke="none" 
	d="
M185.139786,98.121506 
	C185.409821,97.971931 185.759155,98.048378 185.923721,97.978470 
	C186.219711,97.779060 186.351120,97.649559 186.635406,97.289352 
	C187.655350,97.024719 188.522400,96.990784 189.819550,96.899719 
	C192.061172,96.814560 193.692566,96.135941 195.584885,95.241180 
	C196.402252,94.999481 196.953552,94.955421 197.913666,94.840919 
	C200.046387,94.469170 201.837173,95.108109 203.796036,94.196808 
	C206.290131,93.240974 208.547485,92.677628 211.329346,92.988663 
	C212.002991,93.174835 212.311508,93.300117 212.866608,93.189659 
	C213.077072,93.046432 213.000107,93.015297 212.985535,93.054169 
	C215.329071,91.668221 217.933685,93.088211 220.662170,92.284012 
	C222.118408,92.063866 223.272629,92.012444 224.720093,91.977753 
	C228.642685,93.089127 232.372604,92.188538 236.435272,92.714828 
	C242.364960,93.123329 247.653061,94.736687 253.415710,95.876953 
	C254.775101,96.776093 255.914215,96.724106 257.394257,96.688148 
	C267.890015,99.356239 277.629364,103.079552 286.880493,107.983246 
	C292.179443,110.792007 297.417908,113.780418 302.383423,117.132530 
	C306.569550,119.958488 310.302429,123.451332 314.271271,126.604485 
	C324.331909,134.597397 332.368744,144.435349 339.654755,154.883820 
	C344.942230,162.466324 349.590759,170.448975 352.666809,179.263000 
	C353.877380,182.731705 355.491272,186.059662 357.041321,189.830017 
	C357.722015,191.582840 357.878540,193.092209 358.754272,194.682358 
	C360.429260,203.679626 361.916779,212.418793 363.717865,221.410904 
	C362.790863,229.084518 363.697723,236.559937 363.337799,244.360626 
	C362.930878,247.854462 362.648315,250.993896 362.446960,254.530029 
	C361.206757,255.390442 361.508301,256.586945 361.123291,257.805786 
	C360.911407,258.042419 361.006470,258.013092 360.992645,257.965332 
	C360.701721,258.147278 360.615692,258.434265 360.870911,258.961945 
	C360.796234,260.833130 360.571442,262.520935 360.436859,264.566345 
	C358.993958,265.594269 359.364563,266.905457 359.332397,268.407654 
	C356.351044,276.801880 354.490753,285.464355 350.384094,292.883423 
	C344.589111,303.352570 339.044281,314.143524 330.539703,322.970551 
	C326.795288,326.856934 322.556946,330.383331 320.226349,335.665314 
	C319.493988,337.325134 316.397766,338.296356 314.484100,339.799774 
	C302.398926,349.294220 289.655853,357.846649 275.149902,363.135498 
	C268.606140,365.521393 262.138062,368.178131 255.184113,369.716522 
	C249.353577,371.006439 243.505707,370.918213 237.253204,372.077393 
	C228.409607,372.775391 220.046890,372.355743 211.331543,372.224945 
	C205.848328,371.641357 200.751343,371.481812 195.618790,370.604828 
	C185.582748,368.890045 176.301315,365.188538 166.970535,361.447632 
	C161.422028,359.223114 156.688034,355.179535 151.319550,353.129700 
	C140.770966,349.101929 134.245743,340.210602 125.815353,333.753418 
	C122.617455,331.304047 117.959412,328.507629 116.444405,323.561707 
	C115.709625,322.456512 114.980759,321.516327 114.141327,320.247864 
	C110.059433,316.036346 107.171967,311.395874 104.143166,306.826233 
	C98.313690,298.031128 93.549294,288.710693 90.229019,278.731079 
	C87.668312,271.034515 85.312691,263.238037 84.129852,254.741150 
	C83.989815,253.373779 84.327080,252.325256 83.245178,251.339432 
	C84.447830,246.255936 81.188980,241.903061 81.430153,237.146744 
	C81.504799,235.674454 81.453445,234.195770 81.611923,232.392670 
	C83.132217,231.970612 82.279160,231.030518 82.189377,230.235352 
	C80.246361,223.957535 83.087593,218.339996 84.073051,212.647552 
	C86.728455,197.308884 91.407799,182.525848 98.857849,168.727005 
	C105.360405,156.683105 113.561378,145.919617 122.604980,135.670944 
	C128.894348,128.543503 137.484512,124.290039 143.955658,117.690430 
	C148.094406,113.469543 153.409225,112.877312 157.867447,110.075218 
	C160.438782,108.459068 161.919006,105.172424 165.860535,104.963974 
	C166.941971,104.340286 167.805466,104.610764 168.818558,104.201851 
	C169.072235,104.038033 169.005661,104.019730 169.005005,104.054245 
	C169.150558,103.914658 169.296768,103.740547 169.658142,103.301804 
	C173.772690,101.736183 177.672058,100.435181 181.861786,99.008644 
	C182.908463,98.015053 184.164017,99.363754 185.139786,98.121506 
z"/>
<path fill="#BABAC0" opacity="1.000000" stroke="none" 
	d="
M211.195084,372.375031 
	C219.295868,372.049133 227.618301,372.092102 236.350998,372.153564 
	C228.346741,373.854340 219.870041,372.780396 211.195084,372.375031 
z"/>
<path fill="#BDBFC7" opacity="1.000000" stroke="none" 
	d="
M363.454437,244.402222 
	C362.605286,237.183502 362.607758,229.655579 363.688782,221.897919 
	C363.919403,229.139038 363.807404,236.614243 363.454437,244.402222 
z"/>
<path fill="#CFDCE1" opacity="1.000000" stroke="none" 
	d="
M236.586761,92.556503 
	C232.989731,92.858498 229.147842,92.837532 225.159637,92.405518 
	C228.789520,92.074173 232.565720,92.153854 236.586761,92.556503 
z"/>
<path fill="#C6D4DF" opacity="1.000000" stroke="none" 
	d="
M220.527008,92.074966 
	C218.921005,95.405289 216.051666,91.658958 213.372925,93.026222 
	C215.088074,91.019371 217.735229,92.510918 220.527008,92.074966 
z"/>
<path fill="#BFC2D8" opacity="1.000000" stroke="none" 
	d="
M195.510071,95.095024 
	C194.957916,97.612228 192.850800,97.357903 190.521423,97.030640 
	C191.623764,95.506493 193.542892,95.751175 195.510071,95.095024 
z"/>
<path fill="#DCDCDF" opacity="1.000000" stroke="none" 
	d="
M203.694458,93.877327 
	C202.613815,95.656860 201.080276,96.801163 198.673248,94.806274 
	C199.825195,93.610214 201.701065,94.300285 203.694458,93.877327 
z"/>
<path fill="#C3C4D5" opacity="1.000000" stroke="none" 
	d="
M358.915710,194.608826 
	C356.858246,194.280640 356.734802,192.719955 357.130798,190.571381 
	C358.585052,191.204483 358.117157,193.004333 358.915710,194.608826 
z"/>
<path fill="#A3A5AA" opacity="1.000000" stroke="none" 
	d="
M83.066727,251.492523 
	C84.263641,250.649139 85.230995,251.138489 85.755051,252.204407 
	C86.195045,253.099335 85.027687,253.378647 84.385071,254.167664 
	C83.046577,253.775620 83.334991,252.710007 83.066727,251.492523 
z"/>
<path fill="#BDBFC7" opacity="1.000000" stroke="none" 
	d="
M82.043030,230.364685 
	C82.401299,231.095749 84.653374,231.479645 83.257088,233.213409 
	C82.512970,234.137390 82.020042,233.850418 81.829865,232.402832 
	C81.871094,231.613983 81.978119,231.162643 82.043030,230.364685 
z"/>
<path fill="#D2D5DB" opacity="1.000000" stroke="none" 
	d="
M257.467560,96.572273 
	C256.493378,96.653252 255.125977,98.837349 253.911362,96.281021 
	C254.932571,96.089317 256.076538,96.207199 257.467560,96.572273 
z"/>
<path fill="#D0D1D4" opacity="1.000000" stroke="none" 
	d="
M359.437744,268.442017 
	C359.264465,267.437622 357.111572,265.831726 360.163818,264.958496 
	C360.238556,266.012482 359.950012,267.101044 359.437744,268.442017 
z"/>
<path fill="#E1F2F2" opacity="1.000000" stroke="none" 
	d="
M113.692703,320.337280 
	C115.364510,320.355774 116.013779,321.344330 116.067139,323.197388 
	C115.223503,322.619232 114.357063,321.649628 113.692703,320.337280 
z"/>
<path fill="#D2D5DB" opacity="1.000000" stroke="none" 
	d="
M361.269836,257.922607 
	C363.049774,257.514618 358.032990,255.073822 362.131348,254.945312 
	C362.228210,255.885391 361.928223,256.844086 361.269836,257.922607 
z"/>
<path fill="#BABAC0" opacity="1.000000" stroke="none" 
	d="
M185.061127,97.819588 
	C185.243790,100.099693 184.240555,100.029182 182.501923,98.914650 
	C182.652008,97.733330 183.747955,97.838730 185.061127,97.819588 
z"/>
<path fill="#C3C6CA" opacity="1.000000" stroke="none" 
	d="
M168.797134,103.828018 
	C168.793823,105.384392 167.802200,105.044151 166.574005,104.893311 
	C166.703308,103.880051 167.581894,103.691193 168.797134,103.828018 
z"/>
<path fill="#C3C6CA" opacity="1.000000" stroke="none" 
	d="
M169.608002,103.114159 
	C169.736618,103.320473 169.599915,103.603752 169.233780,103.987900 
	C169.117111,103.789543 169.229904,103.490334 169.608002,103.114159 
z"/>
<path fill="#BABAC0" opacity="1.000000" stroke="none" 
	d="
M186.580444,97.144188 
	C186.860291,97.371521 186.760895,97.614304 186.289200,97.847778 
	C186.088287,97.908569 185.990829,97.468674 185.990829,97.468674 
	C185.990829,97.468674 186.372589,97.229729 186.580444,97.144188 
z"/>
<path fill="#C6D4DF" opacity="1.000000" stroke="none" 
	d="
M212.753265,92.779831 
	C212.900558,93.648361 212.701492,94.197006 211.852631,93.240463 
	C211.960251,92.817520 212.194870,92.665375 212.753265,92.779831 
z"/>
<path fill="#D2D5DB" opacity="1.000000" stroke="none" 
	d="
M361.168152,258.832977 
	C360.526581,258.945190 359.784546,258.885559 360.690247,257.985962 
	C361.090973,258.118530 361.203094,258.319550 361.168152,258.832977 
z"/>
<path fill="#3479B9" opacity="1.000000" stroke="none" 
	d="
M217.411377,135.446228 
	C217.284485,135.008057 217.221436,134.844620 217.089600,134.427551 
	C216.881424,133.950699 216.742035,133.727463 216.808258,133.167191 
	C217.013870,132.830170 217.077988,132.499100 217.043900,132.333984 
	C216.874100,131.945587 216.738373,131.722290 216.806931,131.164505 
	C217.059006,130.649307 217.106766,130.468597 217.252213,129.758240 
	C217.284744,129.056122 217.219589,128.883636 217.081772,128.444305 
	C216.873611,127.950050 216.738113,127.722649 216.802780,127.152313 
	C217.043488,126.630959 217.084045,126.452515 217.214539,126.014709 
	C217.695480,121.564728 221.512405,123.756851 223.783386,122.315750 
	C224.112930,122.176758 224.370773,122.050072 224.514282,122.044304 
	C224.936401,121.893250 225.214996,121.747971 225.912445,121.818726 
	C226.331314,122.034775 226.649780,122.045380 226.797424,122.105286 
	C228.521729,122.621475 230.152618,122.802795 231.771011,122.947868 
	C238.002945,123.506546 238.004074,123.477730 238.004211,129.816620 
	C238.004257,131.948669 237.972275,134.080933 238.080872,136.617004 
	C238.194656,137.276886 238.264664,137.532410 238.412292,138.170319 
	C239.010422,140.172089 240.393143,141.076843 241.809738,141.230255 
	C245.822906,141.664917 249.398911,143.528091 253.638184,144.432037 
	C255.376892,144.206039 256.423584,144.926453 257.769592,145.850708 
	C265.687164,148.372177 270.479248,154.151505 275.026459,160.112350 
	C277.161041,162.910538 278.786102,166.095413 280.669464,169.087769 
	C283.556335,173.674500 282.713959,179.081985 283.952728,184.438995 
	C285.089417,186.931519 284.224823,189.189087 284.487000,191.759018 
	C284.402771,193.024902 284.026581,193.746628 283.228943,194.709015 
	C282.949493,195.011414 282.946899,194.960770 282.971039,194.953018 
	C281.641144,196.088303 280.007935,195.200195 278.196106,195.720093 
	C277.846436,195.883392 277.647827,196.012192 277.537292,195.969910 
	C277.116608,196.156357 276.806427,196.385056 276.033569,196.267319 
	C275.570831,195.920837 275.370911,196.004776 275.283020,195.941254 
	C271.691803,195.264984 268.153351,195.749344 264.257690,195.696884 
	C263.878326,195.854080 263.652039,195.989548 263.525269,195.953217 
	C263.098877,196.077057 262.799194,196.237167 262.050293,196.156616 
	C261.601074,195.915909 261.346832,195.988663 261.233337,195.920853 
	C259.268463,195.168839 257.363068,195.577362 255.155197,195.726349 
	C254.832336,195.878494 254.641266,196.007782 254.533554,195.966492 
	C254.116852,196.082611 253.807846,196.239960 253.035370,196.161255 
	C252.571899,195.925156 252.197113,196.035782 252.197113,196.035782 
	C252.197113,196.035782 251.806335,196.034698 251.619247,195.978348 
	C251.192719,196.059525 250.953278,196.197037 250.325150,196.191391 
	C249.936478,196.048218 249.995712,196.009750 249.984100,196.043091 
	C249.211990,195.318573 248.813446,194.331528 248.057953,193.210907 
	C246.135239,190.059341 245.997543,186.554031 245.329514,183.448578 
	C243.617920,175.492004 238.234970,171.882904 231.326782,168.866135 
	C229.510483,168.181488 227.973969,168.712830 226.246582,168.160278 
	C225.989441,167.886597 225.500122,167.873596 225.255463,167.880096 
	C223.063843,169.110184 220.891891,168.192551 218.471344,168.648056 
	C211.935745,171.868973 207.560913,176.624359 204.923950,183.363708 
	C204.501297,186.876434 204.413742,190.022827 204.663589,193.551819 
	C208.397156,205.029434 218.250992,208.895370 227.581940,212.960251 
	C237.788284,217.406494 247.662415,222.420975 257.567047,227.474396 
	C266.368622,231.965012 273.566711,237.678360 278.796387,246.376938 
	C279.127930,247.016541 279.365326,247.330109 279.858643,247.807892 
	C280.091949,247.989075 280.022003,247.987793 280.035156,247.955368 
	C280.588196,248.621460 280.461548,249.458420 280.630676,250.541946 
	C283.515808,256.148163 285.986572,261.418854 284.965027,267.832031 
	C284.315125,271.911987 285.817169,276.050598 285.172760,280.373352 
	C284.713593,283.453247 284.132690,286.338989 282.939453,289.529510 
	C283.156006,290.076019 283.376709,290.254364 283.315796,290.751892 
	C283.034210,291.071045 283.010529,290.996765 283.047852,290.985474 
	C282.581116,291.392578 282.508911,292.009796 282.128906,292.797913 
	C281.188965,298.998352 277.678192,303.837463 273.672943,307.556274 
	C266.093262,314.593903 257.453979,320.378937 246.393402,321.932922 
	C245.406082,322.669037 244.547424,322.716095 243.346649,322.769287 
	C240.789154,325.097382 236.151047,320.989624 235.422470,324.909302 
	C234.980270,327.288177 235.166626,330.187531 235.108734,332.855865 
	C235.056320,335.271545 237.759018,337.658600 235.026031,340.583496 
	C234.708923,341.280487 234.510513,341.531097 233.990295,341.801025 
	C233.765961,341.897522 233.603989,342.011353 233.515228,341.967529 
	C233.119049,342.081604 232.811569,342.239410 232.042648,342.161163 
	C231.581146,341.924988 231.501892,342.003326 231.462555,341.963867 
	C231.114731,342.082062 230.806305,342.239716 230.035004,342.161194 
	C229.572159,341.925018 229.370972,342.005951 229.282700,341.942993 
	C224.679657,341.025879 220.111755,341.781433 215.200851,341.177124 
	C211.379196,337.069031 214.188950,332.785278 214.052643,328.716248 
	C213.912018,324.518402 211.532837,323.442780 207.672516,323.224152 
	C206.648041,323.043152 206.056976,322.644257 205.189148,322.109436 
	C193.426620,319.640228 183.245438,314.351562 174.457672,306.904816 
	C168.439423,301.804932 164.882782,294.902222 162.559189,286.946655 
	C160.823273,281.003204 160.935303,275.459351 161.020782,269.624603 
	C161.065689,266.558441 161.221436,264.299011 165.245880,266.013092 
	C166.084579,266.370331 167.220459,266.029724 168.684204,265.877228 
	C176.863190,265.163361 184.584579,265.479675 192.717316,265.811462 
	C198.768723,264.575531 198.218292,270.116821 198.224045,272.009674 
	C198.265854,285.772369 209.116928,293.619385 222.440430,293.642242 
	C227.267303,293.650513 231.707977,292.726929 236.034256,291.590332 
	C240.218689,290.490936 243.849518,287.228943 244.323227,282.380585 
	C244.581329,279.738922 247.945847,278.741272 247.144775,275.438354 
	C247.494370,274.500061 247.524292,273.964752 247.115128,273.218811 
	C246.912613,273.025757 246.982468,273.009644 246.966187,273.041565 
	C246.851685,272.805969 246.753448,272.538452 246.862167,271.896851 
	C247.069107,271.522797 247.008713,271.497437 247.038605,271.484039 
	C246.840088,271.194153 246.611725,270.917633 246.742584,270.240784 
	C245.554382,264.149170 243.582199,258.524536 238.282303,255.331940 
	C233.646713,252.539520 228.566864,250.477402 223.655029,248.152283 
	C213.029526,243.122437 202.198608,238.486801 191.805099,233.018250 
	C182.385986,228.062393 175.592697,220.281921 170.901489,210.624191 
	C167.601578,203.830704 165.658875,196.962051 167.056549,189.332611 
	C167.361954,187.665543 166.648041,185.811752 166.741333,183.693665 
	C166.937317,183.117889 166.795517,182.892426 166.804169,182.296844 
	C166.954620,181.926727 166.981720,181.996017 166.946594,182.008270 
	C167.812714,181.327255 167.296036,180.283569 167.792816,179.177994 
	C167.994720,171.242874 172.326111,165.368698 176.536743,159.311127 
	C178.138367,158.057953 180.112030,157.502304 180.765930,155.218750 
	C180.943436,154.928604 180.884949,154.987839 180.855957,154.957977 
	C190.038376,146.890793 201.206070,143.017822 212.741531,139.920044 
	C214.012146,139.578857 215.374100,139.454453 216.726425,138.304993 
	C217.054077,137.855011 217.093567,137.646149 217.231171,137.133911 
	C217.442856,136.469223 217.491486,136.099380 217.411377,135.446228 
z"/>
<path fill="#6E94BA" opacity="1.000000" stroke="none" 
	d="
M216.601105,138.082275 
	C216.652023,139.714935 215.677734,140.615158 213.954941,140.854279 
	C207.193069,141.792770 201.048096,144.721512 194.681061,146.929703 
	C189.735580,148.644897 186.542084,153.255142 181.194580,154.927643 
	C178.835693,151.487259 183.226456,152.915787 184.020111,151.037369 
	C184.772873,149.255737 188.650238,149.253418 189.055618,145.848999 
	C189.149231,145.062881 191.285736,146.153412 192.842468,145.553696 
	C200.460999,142.618698 208.094284,139.597153 216.601105,138.082275 
z"/>
<path fill="#6F94B8" opacity="1.000000" stroke="none" 
	d="
M253.827087,144.368103 
	C248.794266,143.506119 242.553192,144.487610 238.228943,139.185272 
	C238.348618,138.697052 238.505722,138.571594 238.845337,138.686249 
	C243.907806,140.309479 248.937988,141.259598 253.827087,144.368103 
z"/>
<path fill="#6E94BA" opacity="1.000000" stroke="none" 
	d="
M238.192047,137.691437 
	C236.324356,135.224121 237.168701,132.156235 237.202194,129.234940 
	C237.242645,125.703705 236.666000,123.398102 232.338470,123.766418 
	C230.779541,123.899094 229.136810,123.047279 227.238708,122.404968 
	C230.512375,122.196121 234.079681,122.227066 237.825195,122.649086 
	C238.998413,124.017174 238.475479,125.240738 238.711029,126.676117 
	C238.878113,126.984009 239.038971,127.342484 239.034302,127.538879 
	C239.152191,127.987404 239.274750,128.239532 239.212067,128.869141 
	C239.026810,129.246628 239.023880,129.671021 238.941193,129.866455 
	C238.062515,132.454620 238.756927,134.935684 238.192047,137.691437 
z"/>
<path fill="#ADC6D9" opacity="1.000000" stroke="none" 
	d="
M193.013641,265.695251 
	C185.433517,266.042816 177.736450,266.020508 169.594193,265.870972 
	C171.955368,262.263397 175.357803,265.504730 178.489212,265.126617 
	C183.178406,264.560364 188.124878,263.864563 193.013641,265.695251 
z"/>
<path fill="#6E94BA" opacity="1.000000" stroke="none" 
	d="
M223.661102,122.138962 
	C222.775726,124.840218 219.179489,122.838699 217.516724,125.511780 
	C216.231842,119.623512 220.967133,122.876701 223.661102,122.138962 
z"/>
<path fill="#A2BBD7" opacity="1.000000" stroke="none" 
	d="
M215.067688,341.296631 
	C219.381699,341.066833 223.942047,341.210144 228.848419,341.616730 
	C224.567627,341.809906 219.940826,341.739807 215.067688,341.296631 
z"/>
<path fill="#A8C0D5" opacity="1.000000" stroke="none" 
	d="
M264.315735,195.871170 
	C267.370209,194.499161 270.952118,195.127151 274.855865,195.624405 
	C271.715118,196.503586 268.234192,196.274857 264.315735,195.871170 
z"/>
<path fill="#B2CAE6" opacity="1.000000" stroke="none" 
	d="
M204.845673,193.512115 
	C203.438080,190.793350 204.105423,187.579575 204.667694,184.062500 
	C206.647263,186.867844 203.993073,189.977631 204.845673,193.512115 
z"/>
<path fill="#CBDDF3" opacity="1.000000" stroke="none" 
	d="
M283.785797,193.254791 
	C283.966431,190.567963 283.934937,188.167053 283.909088,185.311249 
	C286.017944,187.940186 284.489838,191.371796 284.437134,194.710449 
	C283.654938,194.457642 283.515778,194.034485 283.785797,193.254791 
z"/>
<path fill="#B2CCE4" opacity="1.000000" stroke="none" 
	d="
M238.003052,138.229645 
	C238.109375,135.583435 238.260910,133.140015 238.635498,130.379227 
	C238.896027,132.724319 238.933533,135.386780 238.999435,138.487793 
	C239.027832,138.926346 238.614792,138.829773 238.403137,138.826141 
	C238.191498,138.822510 238.048264,138.432434 238.003052,138.229645 
z"/>
<path fill="#6E94BA" opacity="1.000000" stroke="none" 
	d="
M180.607880,155.009445 
	C181.183594,157.377304 179.894363,158.640869 177.286072,159.251968 
	C177.119751,157.196213 179.270126,156.597382 180.607880,155.009445 
z"/>
<path fill="#C7DDFA" opacity="1.000000" stroke="none" 
	d="
M218.511230,168.826660 
	C219.987625,167.513657 222.177689,168.247055 224.606430,167.872940 
	C223.306808,170.171921 220.929611,168.382721 218.511230,168.826660 
z"/>
<path fill="#C7DDFA" opacity="1.000000" stroke="none" 
	d="
M225.986542,168.263458 
	C227.467285,168.019821 228.945129,168.153061 230.688049,168.542068 
	C229.309601,168.336121 227.595657,170.096527 225.986542,168.263458 
z"/>
<path fill="#E0EAF8" opacity="1.000000" stroke="none" 
	d="
M254.590775,144.929428 
	C254.273972,144.831406 254.214478,144.528854 254.147049,144.390076 
	C256.175964,142.037354 256.749634,144.725967 257.994385,145.773438 
	C257.005737,145.741455 255.956650,145.384445 254.590775,144.929428 
z"/>
<path fill="#A8C0D5" opacity="1.000000" stroke="none" 
	d="
M255.283798,195.895157 
	C256.632751,194.563370 258.590942,195.142563 260.821259,195.628815 
	C259.324951,195.872635 257.530121,195.892227 255.283798,195.895157 
z"/>
<path fill="#A8C0D5" opacity="1.000000" stroke="none" 
	d="
M278.252502,195.899567 
	C279.122009,194.646545 280.762665,195.282120 282.612579,194.987000 
	C282.353058,198.858948 279.824799,194.344284 278.252502,195.899567 
z"/>
<path fill="#E5F9FF" opacity="1.000000" stroke="none" 
	d="
M243.368164,322.983826 
	C243.584442,321.958557 244.566040,322.225800 245.685730,321.935089 
	C245.515259,323.138550 245.023560,324.403259 244.417542,325.961975 
	C244.138657,324.848022 243.921265,323.979675 243.368164,322.983826 
z"/>
<path fill="#A8C0D5" opacity="1.000000" stroke="none" 
	d="
M247.970215,193.362289 
	C248.548569,193.807953 249.273315,194.616364 249.985291,195.750610 
	C248.095520,196.285828 247.827637,195.225189 247.970215,193.362289 
z"/>
<path fill="#E8EDF8" opacity="1.000000" stroke="none" 
	d="
M205.001984,322.199036 
	C205.617096,322.026825 206.291382,322.188721 207.178070,322.626343 
	C206.758728,323.484436 207.351654,325.129059 205.926086,324.905701 
	C204.553375,324.690643 206.594009,322.897858 205.001984,322.199036 
z"/>
<path fill="#B2CCE4" opacity="1.000000" stroke="none" 
	d="
M238.908722,126.652069 
	C237.898407,126.067932 238.263519,124.839432 238.062622,123.384415 
	C240.259613,123.578712 239.541183,124.966049 238.908722,126.652069 
z"/>
<path fill="#C7DCEE" opacity="1.000000" stroke="none" 
	d="
M167.675537,178.946930 
	C167.879578,179.864136 167.725052,180.802963 167.240997,181.881165 
	C168.337814,181.174744 164.717987,179.658554 167.675537,178.946930 
z"/>
<path fill="#D5E2F3" opacity="1.000000" stroke="none" 
	d="
M280.810486,250.493118 
	C280.398804,250.052979 280.068787,249.276413 279.893555,248.211395 
	C281.325348,248.291351 280.991699,249.268234 280.810486,250.493118 
z"/>
<path fill="#D5E2F3" opacity="1.000000" stroke="none" 
	d="
M282.253174,292.958221 
	C282.105560,292.410034 282.297180,291.808502 282.786987,291.090607 
	C282.920929,291.617767 282.756653,292.261353 282.253174,292.958221 
z"/>
<path fill="#A8C0D5" opacity="1.000000" stroke="none" 
	d="
M275.727417,196.271317 
	C275.880188,195.834976 276.189575,195.749100 276.962830,195.795425 
	C277.094666,196.574799 276.762543,197.221985 276.430420,197.869156 
	C276.248260,197.453369 276.066132,197.037582 275.727417,196.271317 
z"/>
<path fill="#D5E2F3" opacity="1.000000" stroke="none" 
	d="
M283.377228,291.044495 
	C282.942902,290.881805 282.851562,290.692535 282.847748,290.200439 
	C283.548737,290.059448 284.162170,290.221222 284.775604,290.382996 
	C284.423798,290.594635 284.072021,290.806305 283.377228,291.044495 
z"/>
<path fill="#C7DCEE" opacity="1.000000" stroke="none" 
	d="
M246.987930,273.351990 
	C248.321838,273.026581 247.655777,273.956482 247.408951,274.810059 
	C247.153412,274.569824 247.108322,274.123993 246.987930,273.351990 
z"/>
<path fill="#A8C0D5" opacity="1.000000" stroke="none" 
	d="
M283.853638,193.216858 
	C284.013123,193.375366 284.028290,193.781876 284.033875,194.493362 
	C283.841064,194.813187 283.657898,194.828018 283.212128,194.927124 
	C283.202789,194.495895 283.456085,193.980377 283.853638,193.216858 
z"/>
<path fill="#6E94BA" opacity="1.000000" stroke="none" 
	d="
M217.298309,135.446136 
	C217.469086,135.470230 217.621124,135.761414 217.698044,136.071243 
	C217.731461,136.205826 217.610321,136.378754 217.444321,136.682404 
	C217.302551,136.460617 217.275803,136.090714 217.298309,135.446136 
z"/>
<path fill="#C7DCEE" opacity="1.000000" stroke="none" 
	d="
M246.741501,269.900452 
	C247.163010,270.113220 247.224167,270.386047 247.176910,271.064758 
	C246.452042,271.141357 245.835556,270.812103 245.219086,270.482819 
	C245.606445,270.308746 245.993790,270.134644 246.741501,269.900452 
z"/>
<path fill="#A2BBD7" opacity="1.000000" stroke="none" 
	d="
M231.766632,342.227661 
	C231.888351,341.846710 232.195572,341.768463 232.964630,341.806946 
	C233.026047,342.347107 232.879959,343.388641 231.766632,342.227661 
z"/>
<path fill="#6E94BA" opacity="1.000000" stroke="none" 
	d="
M226.193024,121.714508 
	C226.052780,122.081001 225.774246,122.127235 225.076752,122.106003 
	C224.968170,121.487083 225.129745,120.613029 226.193024,121.714508 
z"/>
<path fill="#6E94BA" opacity="1.000000" stroke="none" 
	d="
M217.313126,129.362000 
	C217.349884,129.228607 217.459198,129.646225 217.404480,129.704224 
	C217.349777,129.762207 217.276367,129.495392 217.313126,129.362000 
z"/>
<path fill="#C7DCEE" opacity="1.000000" stroke="none" 
	d="
M166.667313,182.008347 
	C167.070053,182.154266 167.185501,182.381805 167.190033,182.976349 
	C166.687698,183.013901 165.883560,182.914642 166.667313,182.008347 
z"/>
<path fill="#D5E2F3" opacity="1.000000" stroke="none" 
	d="
M280.007080,247.692245 
	C279.738983,247.787567 279.386047,247.586044 278.974854,247.033966 
	C279.251801,246.920731 279.586975,247.158066 280.007080,247.692245 
z"/>
<path fill="#A8C0D5" opacity="1.000000" stroke="none" 
	d="
M261.778259,196.221130 
	C261.900391,195.838531 262.199707,195.761139 262.948761,195.800323 
	C263.014740,196.350220 262.887482,197.391037 261.778259,196.221130 
z"/>
<path fill="#A8C0D5" opacity="1.000000" stroke="none" 
	d="
M252.761749,196.224854 
	C252.880600,195.838287 253.189316,195.751434 253.961945,195.794891 
	C254.022797,196.342361 253.876587,197.391266 252.761749,196.224854 
z"/>
<path fill="#A8C0D5" opacity="1.000000" stroke="none" 
	d="
M250.006134,196.354401 
	C250.178253,195.941483 250.420013,195.834763 251.046967,195.825012 
	C251.070389,196.334122 250.925385,197.144302 250.006134,196.354401 
z"/>
<path fill="#6E94BA" opacity="1.000000" stroke="none" 
	d="
M216.667816,126.853706 
	C217.035934,127.037201 217.068924,127.265015 217.055511,127.835144 
	C216.323410,127.994278 215.667831,127.795181 216.667816,126.853706 
z"/>
<path fill="#C7DCEE" opacity="1.000000" stroke="none" 
	d="
M246.838425,271.723877 
	C247.163712,271.790039 247.258316,272.057312 247.151428,272.699036 
	C246.263855,272.861053 245.887589,272.556305 246.838425,271.723877 
z"/>
<path fill="#6E94BA" opacity="1.000000" stroke="none" 
	d="
M216.691605,132.903290 
	C217.044632,133.053925 217.075378,133.277679 217.063477,133.837677 
	C216.398132,133.995377 215.685577,133.865692 216.691605,132.903290 
z"/>
<path fill="#6E94BA" opacity="1.000000" stroke="none" 
	d="
M216.690231,130.902832 
	C217.041214,131.053131 217.071182,131.276276 217.055481,131.834137 
	C216.386398,131.991196 215.684402,131.855698 216.690231,130.902832 
z"/>
<path fill="#B2CCE4" opacity="1.000000" stroke="none" 
	d="
M239.307465,129.115051 
	C238.974167,128.994766 238.921524,128.742905 238.949249,128.113159 
	C239.471512,128.036926 240.276581,128.176071 239.307465,129.115051 
z"/>
<path fill="#A2BBD7" opacity="1.000000" stroke="none" 
	d="
M234.074280,341.910004 
	C233.954681,341.636414 234.143402,341.375275 234.570999,341.033447 
	C234.667450,341.275970 234.525024,341.599243 234.074280,341.910004 
z"/>
<path fill="#A2BBD7" opacity="1.000000" stroke="none" 
	d="
M229.760742,342.226166 
	C229.880371,341.839661 230.188568,341.754272 230.959991,341.796661 
	C231.023911,342.350311 230.876740,343.392517 229.760742,342.226166 
z"/>
</svg>